<svg width="21" height="20" viewBox="0 0 21 20" fill="none" xmlns="http://www.w3.org/2000/svg">
<g id="heart" clip-path="url(#clip0_1865_3)">
<path id="Vector" d="M17.8667 3.84124C17.441 3.41541 16.9357 3.07761 16.3795 2.84714C15.8232 2.61667 15.2271 2.49805 14.625 2.49805C14.0229 2.49805 13.4268 2.61667 12.8705 2.84714C12.3143 3.07761 11.809 3.41541 11.3833 3.84124L10.5 4.72457L9.61666 3.84124C8.75692 2.98149 7.59086 2.49849 6.375 2.49849C5.15914 2.49849 3.99307 2.98149 3.13333 3.84124C2.27359 4.70098 1.79059 5.86704 1.79059 7.0829C1.79059 8.29876 2.27359 9.46483 3.13333 10.3246L4.01666 11.2079L10.5 17.6912L16.9833 11.2079L17.8667 10.3246C18.2925 9.89894 18.6303 9.39358 18.8608 8.83736C19.0912 8.28115 19.2099 7.68497 19.2099 7.0829C19.2099 6.48083 19.0912 5.88465 18.8608 5.32844C18.6303 4.77222 18.2925 4.26686 17.8667 3.84124Z" stroke="#FF1E1E" stroke-width="2" stroke-linecap="round" stroke-linejoin="round"/>
</g>
<defs>
<clipPath id="clip0_1865_3">
<rect width="20" height="20" fill="white" transform="translate(0.5)"/>
</clipPath>
</defs>
</svg>
